# xmcd
#
# Track frame offsets:
#	150
#	11128
#	21646
#	32655
#	42778
#	56365
#	67382
#	78537
#	89502
#	98798
#	111482
#	124095
#	132496
#	143849
#	156871
#	167804
#	182969
#	194437
#	204845
#	217191
#	227676
#	237923
#	250515
#	262686
#	273007
#	282519
#	294384
#	306730
#	321270
#	330376
#	341810
#
# Disc length: 4726 seconds
#
# Revision: 0
# Processed by: cddbd v1.5.2PL0 Copyright (c) Steve Scherf et al.
# Submitted via: EasyCDDAExtractor 15.3.0.1
#
DISCID=dc12741f
DTITLE=Homer And Jethro - Slaughter The Standards CD 1
DYEAR=2013
DGENRE=Country
TTITLE0=Cigareetes Whusky And Wild Wild Women
TTITLE1=West Virginny Hills
TTITLE2=Sweet Fern
TTITLE3=I'll Go Chasin' Women
TTITLE4=Frozen Logger
TTITLE5=Groundhog
TTITLE6=Keep Them Icy Fingers Off Me
TTITLE7=Boll Weevil No. 2
TTITLE8=High Geared Daddy
TTITLE9=Dig Me A Grave In Missouri
TTITLE10=Tennessee Tennessee
TTITLE11=Down Where The Watermelons Grow
TTITLE12=Hey There
TTITLE13=Baby It's Cold Outside
TTITLE14=Don't Let The Stars Get In Your Eyeballs
TTITLE15=Pal Yat Chee
TTITLE16=Hucklebuck
TTITLE17=Billboard Song
TTITLE18=I'm Movin On No. 2
TTITLE19=Love And Marriage
TTITLE20=Hart Brake Hotel
TTITLE21=How Much Is That) Hound Dog In The Window
TTITLE22=Jam Bowl Liar (Jambalaya)
TTITLE23=You Belong To Me No. 2
TTITLE24=Li'l Ole Kiss Of Fire
TTITLE25=Unhappy Day
TTITLE26=Too Young
TTITLE27=I Really Don't Want To Know
TTITLE28=Does The Chewing Gum Lose Its Flavor
TTITLE29=Oh My Pappy
TTITLE30=Sound Off No. 2
EXTD=
EXTT0=
EXTT1=
EXTT2=
EXTT3=
EXTT4=
EXTT5=
EXTT6=
EXTT7=
EXTT8=
EXTT9=
EXTT10=
EXTT11=
EXTT12=
EXTT13=
EXTT14=
EXTT15=
EXTT16=
EXTT17=
EXTT18=
EXTT19=
EXTT20=
EXTT21=
EXTT22=
EXTT23=
EXTT24=
EXTT25=
EXTT26=
EXTT27=
EXTT28=
EXTT29=
EXTT30=
PLAYORDER=
